<svg xmlns="http://www.w3.org/2000/svg" width="26.777" height="68.494" viewBox="0 0 26.777 68.494">
  <g id="Group_3" data-name="Group 3" transform="translate(-31.088 -35.012)">
    <path id="Path_13" data-name="Path 13" d="M55.895,85.947c-.915-1.046-.935-3.683-.9-3.737,0,0-3.427,1.038-3.824-3.668s.157-5.4,2.579-5.26l-.762-1.522s2.215-4.014.485-6.989-7.751-3.6-7.82-6.852c-.043-2.026-.036-9.142-.025-14.224h.762a1.165,1.165,0,1,0,0-.85h-.76c0-.633,0-1.222,0-1.755h.756a1.165,1.165,0,1,0,0-.85h-.753c0-1.207.006-1.955.006-1.955s1.369.226,1.514-.306-.981-2.968-2.681-2.968S41.65,37.448,41.8,37.98s1.514.306,1.514.306,0,.749.006,1.955h-.753a1.165,1.165,0,1,0,0,.85h.755c0,.533,0,1.122,0,1.755h-.76a1.165,1.165,0,1,0,0,.85h.762c.012,5.082.019,12.2-.024,14.224-.07,3.253-6.09,3.876-7.82,6.852s.485,6.989.485,6.989L35.2,73.282c2.422-.138,2.976.554,2.579,5.26s-3.824,3.668-3.824,3.668c.035.054.015,2.691-.9,3.737a10.616,10.616,0,0,0,.208,12.6c4.221,5.813,11.211,4.913,11.211,4.913s6.989.9,11.21-4.913A10.618,10.618,0,0,0,55.895,85.947Z" transform="translate(0 0)" fill="#2a1200"/>
    <path id="Path_14" data-name="Path 14" d="M63.823,217.088a1.888,1.888,0,0,0-.176-.245.962.962,0,0,0-.483-.343.446.446,0,0,0-.381.106.962.962,0,0,0-.243.343,3.7,3.7,0,0,0-.255.863,8.433,8.433,0,0,0-.127.983c-.024.342-.046.7-.048,1.054s-.007.721-.029,1.075a10.121,10.121,0,0,1-.283,2.07,4.284,4.284,0,0,1-.332.887,1.72,1.72,0,0,1-.528.627.8.8,0,0,1-.646.118.772.772,0,0,1-.427-.313.9.9,0,0,1-.052-.087.346.346,0,1,0-.1-.3l-.01-.071s0,.043,0,.115c0,0,0,0,0,.007s0,.005,0,.008h0a.886.886,0,0,0,.106.358.844.844,0,0,0,.816.446,1.075,1.075,0,0,0,.4-.131,1.919,1.919,0,0,0,.634-.664,3.848,3.848,0,0,0,.4-.925,9.133,9.133,0,0,0,.331-2.131c.019-.37.015-.727.018-1.086s0-.7.021-1.039a6.148,6.148,0,0,1,.267-1.792c.089-.24.249-.432.445-.4a.885.885,0,0,1,.457.27c.059.058.108.111.15.158a.343.343,0,1,0,.216.318A.338.338,0,0,0,63.823,217.088Z" transform="translate(-22.066 -139.93)" fill="#fff"/>
    <path id="Path_15" data-name="Path 15" d="M100.96,217.088a1.9,1.9,0,0,1,.176-.245.963.963,0,0,1,.483-.343.446.446,0,0,1,.381.106.962.962,0,0,1,.243.343,3.7,3.7,0,0,1,.255.863,8.435,8.435,0,0,1,.127.983c.024.342.046.7.048,1.054s.007.721.029,1.075a10.136,10.136,0,0,0,.283,2.07,4.27,4.27,0,0,0,.332.887,1.719,1.719,0,0,0,.527.627.8.8,0,0,0,.646.118.772.772,0,0,0,.427-.313.935.935,0,0,0,.052-.087.34.34,0,0,1-.236.1.344.344,0,0,1,0-.688.34.34,0,0,1,.334.293c.006-.042.01-.071.01-.071s0,.043,0,.115a.039.039,0,0,1,0,.007s0,.005,0,.008h0a.888.888,0,0,1-.106.358.844.844,0,0,1-.816.446,1.071,1.071,0,0,1-.4-.131,1.917,1.917,0,0,1-.635-.664,3.857,3.857,0,0,1-.4-.925,9.132,9.132,0,0,1-.331-2.131c-.019-.37-.015-.727-.018-1.086s-.005-.7-.021-1.039a6.163,6.163,0,0,0-.267-1.792c-.09-.24-.25-.432-.445-.4a.888.888,0,0,0-.458.27c-.058.058-.107.111-.149.158a.343.343,0,1,1-.215.318A.338.338,0,0,1,100.96,217.088Z" transform="translate(-53.764 -139.93)" fill="#fff"/>
  </g>
</svg>
